# xmcd
# 
# Track frame offsets:
#     150
#     32415
#     92569
#     122318
#     159994
#     187127
#     215598
# 
# Disc length: 3528
# 
# Revision: 0
# Processed by: cddbd v1.5.2PL0 Copyright (c) Steve Scherf et al.
# Submitted via: fre:ac v1.0.17
# 
DISCID=510dc607
DTITLE=Sam Harris - The Moral Landscape
DYEAR=2010
DGENRE=Audio Book, Philosophy
TTITLE0=Disc 7, Track 01
TTITLE1=Disc 7, Track 02
TTITLE2=Disc 7, Track 03
TTITLE3=Disc 7, Track 04
TTITLE4=Disc 7, Track 05
TTITLE5=Disc 7, Track 06
TTITLE6=Disc 7, Track 07
EXTD="How Science Can Determine Human Values" - 7 hr, 7 discs
EXTT0=
EXTT1=
EXTT2=
EXTT3=
EXTT4=
EXTT5=
EXTT6=
PLAYORDER=
